<?xml version="1.0" encoding="utf-8"?>
<svg version="1.1" x="0px" y="0px" viewBox="0 0 100 100" enable-background="new 0 0 100 100" xmlns="http://www.w3.org/2000/svg">
  <defs/>
  <path d="M 81.7 21.7 L 18.2 21.7 C 12.9 21.7 8.6 26 8.6 31.3 L 8.6 69.4 C 8.6 74.7 12.9 79 18.2 79 L 24.9 79 L 30.8 86.9 C 31.2 87.4 32.5 88.9 34.5 88.9 C 35.4 88.9 36.8 88.5 38.1 86.8 L 44 79 L 81.7 79 C 87 79 91.3 74.7 91.3 69.4 L 91.3 31.4 C 91.3 26.1 87 21.7 81.7 21.7 Z M 87.6 69.5 C 87.6 72.8 84.9 75.4 81.7 75.4 L 43 75.4 C 42.4 75.4 41.9 75.7 41.5 76.1 L 35.1 84.7 C 34.7 85.2 34.5 85.3 34.5 85.3 C 34.4 85.3 34 85 33.8 84.7 L 27.4 76.1 C 27.1 75.6 26.5 75.4 25.9 75.4 L 18.3 75.4 C 15 75.4 12.4 72.7 12.4 69.5 L 12.4 31.4 C 12.4 28.1 15.1 25.5 18.3 25.5 L 81.8 25.5 C 85.1 25.5 87.7 28.2 87.7 31.4 L 87.7 69.5 L 87.6 69.5 Z"/>
</svg>